<svg width="1115" height="1031" viewBox="0 0 1115 1031" fill="none" xmlns="http://www.w3.org/2000/svg">
<g opacity="0.4" filter="url(#filter0_f_0_1)">
<path d="M724.946 855.519L511.032 804.132L421.663 739.469L448.226 568.957L623.649 549.391L622.041 427.647L824.309 373.392L954.602 404.691L872.165 670.797L744.892 703.987L724.946 855.519Z" fill="#4D5BCE"/>
<path d="M724.946 855.519L511.032 804.132L421.663 739.469L448.226 568.957L623.649 549.391L622.041 427.647L824.309 373.392L954.602 404.691L872.165 670.797L744.892 703.987L724.946 855.519Z" stroke="black"/>
</g>
<g opacity="0.4" filter="url(#filter1_f_0_1)">
<path d="M674.469 258.482L690.984 477.861L656.759 582.726L486.295 609.598L414.003 448.57L298.588 487.343L185.059 311.368L175 177.746L453.567 174.828L524.099 285.846L674.469 258.482Z" fill="#43D9AD"/>
<path d="M674.469 258.482L690.984 477.861L656.759 582.726L486.295 609.598L414.003 448.57L298.588 487.343L185.059 311.368L175 177.746L453.567 174.828L524.099 285.846L674.469 258.482Z" stroke="black"/>
</g>
<defs>
<filter id="filter0_f_0_1" x="247.122" y="198.876" width="882.116" height="831.259" filterUnits="userSpaceOnUse" color-interpolation-filters="sRGB">
<feFlood flood-opacity="0" result="BackgroundImageFix"/>
<feBlend mode="normal" in="SourceGraphic" in2="BackgroundImageFix" result="shape"/>
<feGaussianBlur stdDeviation="87" result="effect1_foregroundBlur_0_1"/>
</filter>
<filter id="filter1_f_0_1" x="0.461426" y="0.32486" width="865.028" height="783.826" filterUnits="userSpaceOnUse" color-interpolation-filters="sRGB">
<feFlood flood-opacity="0" result="BackgroundImageFix"/>
<feBlend mode="normal" in="SourceGraphic" in2="BackgroundImageFix" result="shape"/>
<feGaussianBlur stdDeviation="87" result="effect1_foregroundBlur_0_1"/>
</filter>
</defs>
</svg>
